#N canvas 336 25 374 285 10;
#X declare -lib mrpeach;
#N canvas 77 9 587 527 midifling-oscmidi 1;
#X obj 39 104 unpackOSC;
#X obj 39 129 pipelist;
#X obj 39 79 udpreceive 8000;
#X obj -40 200 print test;
#X msg 39 54 port \$1;
#X obj 39 29 r midifling-osc-listen-port;
#X obj 39 154 routeOSC /midifling;
#X obj 39 206 routeOSC /port /prefix;
#X obj 39 231 s midifling-osc-listen-port;
#X obj 39 180 routeOSC /sys /grid /adc /enc/delta;
#X obj 1 261 print /sys/port:;
#X obj 103 261 print /sys/prefix:;
#X obj 220 306 notein;
#X obj 142 409 midifling-data-parse;
#X obj 220 335 pack f f f;
#X obj 259 360 r midifling-userprefs-list;
#X obj 142 436 unpack f f f;
#X obj 142 483 noteout;
#X obj 296 117 packOSC;
#X msg 296 92 send /sys/info localhost \$1;
#X obj 296 152 udpsend;
#X obj 296 42 t f f;
#X msg 323 67 connect 127.0.0.1 \$1;
#X obj 296 20 r midifling-osc-send-port;
#X obj 259 384 list;
#X connect 0 0 1 0;
#X connect 0 0 3 0;
#X connect 0 1 1 1;
#X connect 1 0 6 0;
#X connect 2 0 0 0;
#X connect 4 0 2 0;
#X connect 5 0 4 0;
#X connect 6 0 9 0;
#X connect 7 0 8 0;
#X connect 7 0 10 0;
#X connect 7 1 11 0;
#X connect 9 0 7 0;
#X connect 9 2 13 0;
#X connect 9 3 13 1;
#X connect 12 0 14 0;
#X connect 12 1 14 1;
#X connect 12 2 14 2;
#X connect 13 0 16 0;
#X connect 14 0 13 2;
#X connect 15 0 24 0;
#X connect 16 0 17 0;
#X connect 16 1 17 1;
#X connect 16 2 17 2;
#X connect 18 0 20 0;
#X connect 19 0 18 0;
#X connect 21 0 19 0;
#X connect 21 1 22 0;
#X connect 22 0 20 0;
#X connect 23 0 21 0;
#X connect 24 0 13 3;
#X restore -3 46 pd midifling-oscmidi;
#N canvas 99 97 686 437 midifling-prefs 1;
#X obj 329 -36 loadbang;
#X msg 329 -57 bang;
#X msg 82 97 1 2 note deviate -15 30;
#X msg 92 117 2 9 note range 0 127;
#X msg 102 137 3 9 note deviate -15 30;
#X msg 112 157 4 9 note random -5 10;
#X obj 82 197 s midifling-userprefs-list;
#X obj 331 82 bng 15 250 50 0 empty empty empty 17 7 0 10 -262144 -1
-1;
#X obj 331 102 bng 15 250 50 0 empty empty empty 17 7 0 10 -262144
-1 -1;
#X obj 331 122 bng 15 250 50 0 empty empty empty 17 7 0 10 -262144
-1 -1;
#X obj 331 142 bng 15 250 50 0 empty empty empty 17 7 0 10 -262144
-1 -1;
#X msg 500 80 8080;
#X msg 454 80 8000;
#X text 14 62 ADC values \; [num] [channel] [target] [kind] [bound1]
[bound2];
#X floatatom 454 101 5 0 0 0 - - midifling-osc-listen-port;
#X floatatom 500 101 5 0 0 0 - - midifling-osc-send-port;
#X obj 356 63 t b b;
#X text 453 53 OSC ports \; LISTEN--SEND;
#X msg 454 137 4;
#X floatatom 454 158 5 0 0 0 - - midifling-num-adcs;
#X text 480 136 Number of ADCs;
#X obj 329 -15 t b b;
#X obj 329 6 s midifling-postprefs-bang;
#X obj 12 27 bng 15 250 50 0 empty empty empty 17 7 0 10 -262144 -1
-1;
#X obj 661 42 bng 15 250 50 0 empty empty empty 17 7 0 10 -262144 -1
-1;
#X connect 0 0 21 0;
#X connect 1 0 0 0;
#X connect 2 0 6 0;
#X connect 3 0 6 0;
#X connect 4 0 6 0;
#X connect 5 0 6 0;
#X connect 7 0 8 0;
#X connect 7 0 2 0;
#X connect 8 0 9 0;
#X connect 8 0 3 0;
#X connect 9 0 10 0;
#X connect 9 0 4 0;
#X connect 9 0 18 0;
#X connect 10 0 5 0;
#X connect 11 0 15 0;
#X connect 12 0 14 0;
#X connect 16 0 11 0;
#X connect 16 1 12 0;
#X connect 18 0 19 0;
#X connect 21 0 22 0;
#X connect 21 1 7 0;
#X connect 21 1 16 0;
#X connect 23 0 24 0;
#X restore -3 27 pd midifling-prefs;
#X obj -3 122 import mrpeach;
#N canvas 90 46 408 344 midifling-colorsend 1;
#X obj 66 34 r midifling-gui-parser;
#X obj 93 57 print;
#X obj 66 82 unpack f f;
#X obj 123 106 t f f f;
#X obj 186 134 * -1;
#X obj 142 168 +;
#X obj 142 134 * -256;
#X obj 86 134 * -65536;
#X obj 127 192 +;
#X obj 127 215 - 1;
#X obj 66 247 pack 0 0 0 0;
#X msg 66 269 \; \$1-midifling-adc color \$2 \$3 \$4;
#X connect 0 0 1 0;
#X connect 0 0 2 0;
#X connect 2 0 10 0;
#X connect 2 1 3 0;
#X connect 3 0 7 0;
#X connect 3 1 6 0;
#X connect 3 2 4 0;
#X connect 4 0 5 1;
#X connect 5 0 8 1;
#X connect 6 0 5 0;
#X connect 7 0 8 0;
#X connect 8 0 9 0;
#X connect 9 0 10 3;
#X connect 9 0 10 2;
#X connect 9 0 10 1;
#X connect 10 0 11 0;
#X restore -3 65 pd midifling-colorsend;
#N canvas 142 10 619 507 midifling-guiwrite 1;
#X msg 277 159 vis 1 \, clear;
#X obj 277 428 s pd-midifling-gui;
#X obj 63 54 t b b;
#X obj 63 112 until;
#X obj 90 87 r midifling-num-adcs;
#X obj 63 28 r midifling-postprefs-bang;
#X obj 63 185 f 0;
#X obj 96 185 + 1;
#X msg 78 162 0;
#X obj 63 138 t b b;
#X obj 82 301 * 50;
#X msg 102 236 cnv 50 50 50 empty empty \$1-midifling-adc 20 12 2 14
18 20 0;
#X obj 63 209 t f f f;
#X obj 37 327 pack 0 0;
#X msg 37 369 \; \$1-midifling-adc pos 50 \$2;
#X connect 0 0 1 0;
#X connect 2 0 3 0;
#X connect 2 1 0 0;
#X connect 3 0 9 0;
#X connect 4 0 3 1;
#X connect 5 0 2 0;
#X connect 6 0 7 0;
#X connect 6 0 12 0;
#X connect 7 0 6 1;
#X connect 8 0 6 1;
#X connect 9 0 6 0;
#X connect 9 1 8 0;
#X connect 10 0 13 1;
#X connect 11 0 1 0;
#X connect 12 0 13 0;
#X connect 12 1 10 0;
#X connect 12 2 11 0;
#X connect 13 0 14 0;
#X connect 14 0 1 0;
#X restore -3 84 pd midifling-guiwrite;
#N canvas 560 5 362 419 midifling-gui 1;
#X restore -3 103 pd midifling-gui;
