#N canvas 336 25 374 285 10;
#X declare -lib mrpeach;
#N canvas 77 1 863 548 midifling-oscmidi 1;
#X obj 39 104 unpackOSC;
#X obj 39 129 pipelist;
#X obj 39 79 udpreceive 8000;
#X msg 39 54 port \$1;
#X obj 39 29 r midifling-osc-listen-port;
#X obj 440 277 midifling-data-parse;
#X obj 572 221 r midifling-userprefs-list;
#X obj 440 304 unpack f f f;
#X obj 572 245 list;
#X obj 252 77 udpsend;
#X msg 252 53 connect 127.0.0.1 \$1;
#X obj 252 29 r midifling-osc-send-port;
#X obj 39 154 routeOSC /*;
#X obj 39 242 s midifling-gui-adc;
#X floatatom 498 44 3 0 0 0 - - -;
#X floatatom 476 44 3 0 0 0 - - -;
#X obj 493 519 noteout;
#X obj 39 180 routeOSC /adc;
#X obj 476 21 notein;
#X floatatom 520 44 3 0 0 0 - - -;
#X obj 500 95 sel 0;
#X msg 500 120 128;
#X msg 529 120 144;
#X obj 500 148 +;
#X obj 508 70 t f f;
#X obj 483 205 pack f f f;
#X obj -20 210 print adc;
#X obj 471 176 f;
#X obj 460 148 t b f;
#X obj 469 358 % 16;
#X obj 493 478 pack f f f;
#X obj 521 401 spigot;
#X obj 509 358 t f b;
#X msg 566 401 0;
#X obj 430 331 t b f f;
#X obj 493 452 f;
#X obj 548 506 print note-out;
#X obj 419 358 <= 143;
#X obj 407 246 print note-in;
#X connect 0 0 1 0;
#X connect 0 1 1 1;
#X connect 1 0 12 0;
#X connect 2 0 0 0;
#X connect 3 0 2 0;
#X connect 4 0 3 0;
#X connect 5 0 7 0;
#X connect 6 0 8 0;
#X connect 7 0 34 0;
#X connect 7 1 35 1;
#X connect 7 2 32 0;
#X connect 8 0 5 2;
#X connect 10 0 9 0;
#X connect 11 0 10 0;
#X connect 12 0 17 0;
#X connect 14 0 24 0;
#X connect 15 0 28 0;
#X connect 17 0 13 0;
#X connect 17 0 5 0;
#X connect 17 0 26 0;
#X connect 18 0 15 0;
#X connect 18 1 14 0;
#X connect 18 2 19 0;
#X connect 19 0 23 1;
#X connect 20 0 21 0;
#X connect 20 1 22 0;
#X connect 21 0 23 0;
#X connect 22 0 23 0;
#X connect 23 0 27 1;
#X connect 24 0 20 0;
#X connect 24 1 25 2;
#X connect 25 0 38 0;
#X connect 25 0 5 1;
#X connect 27 0 25 0;
#X connect 28 0 27 0;
#X connect 28 1 25 1;
#X connect 29 0 30 2;
#X connect 30 0 36 0;
#X connect 30 0 16 0;
#X connect 31 0 30 1;
#X connect 32 0 31 0;
#X connect 32 1 33 0;
#X connect 33 0 30 1;
#X connect 34 0 35 0;
#X connect 34 1 37 0;
#X connect 34 2 29 0;
#X connect 35 0 30 0;
#X connect 37 0 31 1;
#X restore -3 46 pd midifling-oscmidi;
#N canvas 326 251 686 306 midifling-prefs 1;
#X obj 329 -36 loadbang;
#X msg 329 -57 bang;
#X obj 82 197 s midifling-userprefs-list;
#X obj 331 82 bng 15 250 50 0 empty empty empty 17 7 0 10 -262144 -1
-1;
#X obj 331 102 bng 15 250 50 0 empty empty empty 17 7 0 10 -262144
-1 -1;
#X obj 331 122 bng 15 250 50 0 empty empty empty 17 7 0 10 -262144
-1 -1;
#X obj 331 142 bng 15 250 50 0 empty empty empty 17 7 0 10 -262144
-1 -1;
#X msg 500 80 8080;
#X msg 454 80 8000;
#X text 14 62 ADC values \; [num] [channel] [target] [kind] [bound1]
[bound2];
#X floatatom 454 101 5 0 0 0 - - midifling-osc-listen-port;
#X floatatom 500 101 5 0 0 0 - - midifling-osc-send-port;
#X obj 356 63 t b b;
#X text 453 53 OSC ports \; LISTEN--SEND;
#X msg 454 137 4;
#X floatatom 454 158 5 0 0 0 - - midifling-num-adcs;
#X text 480 136 Number of ADCs;
#X obj 329 -15 t b b;
#X obj 329 6 s midifling-postprefs-bang;
#X obj 12 27 bng 15 250 50 0 empty empty empty 17 7 0 10 -262144 -1
-1;
#X obj 661 42 bng 15 250 50 0 empty empty empty 17 7 0 10 -262144 -1
-1;
#X msg 92 117 2 2 note range 50 55;
#X msg 102 137 3 1 note deviate -3 4;
#X msg 112 157 4 1 note random 0 10;
#X msg 82 97 1 2 note range 50 80;
#X connect 0 0 17 0;
#X connect 1 0 0 0;
#X connect 3 0 4 0;
#X connect 3 0 24 0;
#X connect 4 0 5 0;
#X connect 4 0 21 0;
#X connect 5 0 6 0;
#X connect 5 0 22 0;
#X connect 5 0 14 0;
#X connect 6 0 23 0;
#X connect 7 0 11 0;
#X connect 8 0 10 0;
#X connect 12 0 7 0;
#X connect 12 1 8 0;
#X connect 14 0 15 0;
#X connect 17 0 18 0;
#X connect 17 1 3 0;
#X connect 17 1 12 0;
#X connect 19 0 20 0;
#X connect 21 0 2 0;
#X connect 22 0 2 0;
#X connect 23 0 2 0;
#X connect 24 0 2 0;
#X restore -3 27 pd midifling-prefs;
#X obj -3 122 import mrpeach;
#N canvas 90 46 408 478 midifling-colorsend 1;
#X obj 93 57 print;
#X obj 66 82 unpack f f;
#X obj 123 166 t f f f;
#X obj 186 194 * -1;
#X obj 142 228 +;
#X obj 142 194 * -256;
#X obj 86 194 * -65536;
#X obj 127 252 +;
#X obj 127 275 - 1;
#X obj 66 307 pack 0 0 0 0;
#X msg 66 329 \; \$1-midifling-adc color \$2 \$3 \$4;
#X obj 123 137 i;
#X obj 66 34 r midifling-gui-adc;
#X obj 123 110 * 240;
#X connect 1 0 9 0;
#X connect 1 1 13 0;
#X connect 2 0 6 0;
#X connect 2 1 5 0;
#X connect 2 2 3 0;
#X connect 3 0 4 1;
#X connect 4 0 7 1;
#X connect 5 0 4 0;
#X connect 6 0 7 0;
#X connect 7 0 8 0;
#X connect 8 0 9 3;
#X connect 8 0 9 2;
#X connect 8 0 9 1;
#X connect 9 0 10 0;
#X connect 11 0 2 0;
#X connect 12 0 0 0;
#X connect 12 0 1 0;
#X connect 13 0 11 0;
#X restore -3 65 pd midifling-colorsend;
#N canvas 386 12 472 465 midifling-guiwrite 1;
#X msg 173 282 vis 1 \, clear;
#X obj 173 371 s pd-midifling-gui;
#X obj 78 58 r midifling-num-adcs;
#X obj 44 6 r midifling-postprefs-bang;
#X obj 63 185 f 0;
#X obj 96 185 + 1;
#X obj 63 138 t b b;
#X obj 108 244 * 50;
#X obj 63 270 pack 0 0;
#X obj 63 112 until;
#X obj 63 84 f;
#X msg 63 312 obj 50 \$2 cnv 50 50 50 empty \$1-midifling-adc \$1 1
6 0 12 -233017 -262144 0;
#X obj 63 209 t f f;
#X obj 44 32 t b b b;
#X msg 32 138 0;
#X connect 0 0 1 0;
#X connect 2 0 10 1;
#X connect 3 0 13 0;
#X connect 4 0 5 0;
#X connect 4 0 12 0;
#X connect 5 0 4 1;
#X connect 6 0 4 0;
#X connect 7 0 8 1;
#X connect 8 0 11 0;
#X connect 9 0 6 0;
#X connect 10 0 9 0;
#X connect 11 0 1 0;
#X connect 12 0 8 0;
#X connect 12 1 7 0;
#X connect 13 0 14 0;
#X connect 13 1 10 0;
#X connect 13 2 0 0;
#X connect 14 0 4 1;
#X restore -3 84 pd midifling-guiwrite;
#N canvas 560 5 362 419 midifling-gui 1;
#X obj 50 0 cnv 50 50 50 empty 0-midifling-adc 0 1 6 0 12 -79060 -79060
0;
#X obj 50 50 cnv 50 50 50 empty 1-midifling-adc 1 1 6 0 12 -1 -1 0
;
#X obj 50 100 cnv 50 50 50 empty 2-midifling-adc 2 1 6 0 12 -1 -1 0
;
#X obj 50 150 cnv 50 50 50 empty 3-midifling-adc 3 1 6 0 12 -1 -1 0
;
#X restore -3 103 pd midifling-gui;
